<?xml version="1.0" encoding="iso-8859-1"?>
<!DOCTYPE svg PUBLIC "-//W3C//DTD SVG 1.0//EN" "http://www.w3.org/TR/2001/REC-SVG-20010904/DTD/svg10.dtd">
<!-- Creator: CorelDRAW -->
<svg xmlns="http://www.w3.org/2000/svg" xmlns:odm="http://product.corel.com/CGS/11/cddns/" xml:space="default" width="16.5354in" height="11.6929in" style="shape-rendering:geometricPrecision; text-rendering:geometricPrecision; image-rendering:optimizeQuality; fill-rule:evenodd"
     viewBox="0 0 16536 11692">
 <defs>
  <style type="text/css">
   <![CDATA[
    .str0 {stroke:#FCFEFF;stroke-width:3}
    .fil2 {fill:#023F88}
    .fil0 {fill:#D8241D}
   ]]>
  </style>
 </defs>
 <g id="Layer 1">
  <path class="fil0" d="M7795 4200c-388,39 -793,312 -1003,804 -108,259 -114,553 108,571 -3,100 6,187 24,261 -179,35 -339,-22 -329,-277 -67,26 -73,103 -57,144 62,168 218,200 394,163 106,351 447,358 670,96 24,-26 21,-43 -7,-11 -210,238 -522,227 -597,-102 38,-11 76,-24 113,-39 136,-59 275,-151 403,-270 201,178 482,128 688,-81 163,-169 200,-464 -21,-553 113,-13 216,-57 268,-105 184,-172 118,-372 -44,-472 26,-24 55,-46 84,-61 135,-72 189,69 156,209 69,-26 77,-92 66,-135 -30,-122 -144,-144 -264,-83 -27,13 -55,31 -80,48 -164,-89 -368,-126 -572,-107l0 0zm-806 1368c35,-7 75,-20 119,-37 226,-94 438,-353 562,-592 261,-501 13,-667 -379,-257 -203,213 -337,524 -372,710 -9,45 -16,89 -18,130 -111,-56 -79,-268 -12,-453 155,-427 543,-777 899,-825 195,-26 388,4 546,87 -150,115 -279,303 -390,470l-107 164c-247,383 -427,668 -733,812 -36,18 -74,31 -112,41 -11,-69 -15,-152 -3,-250zm414 -869c341,-375 451,-152 240,237 -115,214 -318,499 -583,582 -25,9 -48,13 -68,15 36,-257 199,-603 411,-834zm743 660c-167,266 -429,307 -608,157 131,-124 251,-275 352,-434l109 -170c273,-4 267,253 147,447zm235 -612c-64,72 -193,144 -355,122l121 -196c72,-116 145,-233 230,-318 133,85 125,253 4,392zm258 632c-65,130 -43,189 -3,189 91,0 268,-161 426,-399 9,-15 1,-26 -11,-8 -74,115 -177,231 -246,287 -78,63 -169,120 -85,-13l348 -551c-80,0 -129,15 -209,142l-149 237c-51,70 -109,126 -156,168 -97,87 -179,126 -102,2l241 -381c81,-127 33,-168 -13,-168l-266 423c-117,183 -88,261 -42,261 58,0 179,-96 267,-189l0 0zm501 -495c-24,0 -34,33 -15,33l77 0 -192 303c-208,326 -98,420 93,291 122,-82 225,-202 318,-342 9,-15 1,-26 -10,-8 -87,130 -205,261 -313,324 -41,24 -78,39 -101,26 -24,-13 4,-78 65,-174l263 -420 126 0c22,0 38,-33 19,-33l-123 0c238,-377 543,-856 830,-991 231,-109 471,-118 460,224 66,-26 72,-102 56,-143 -82,-225 -280,-209 -521,-107 -342,148 -682,599 -950,1017l-82 0zm358 0c-24,0 -34,33 -15,33l77 0 -191 303c-208,326 -98,420 92,291 123,-82 225,-202 318,-342 9,-15 2,-26 -10,-8 -87,130 -205,261 -313,324 -41,24 -78,39 -100,26 -25,-13 3,-78 64,-174l263 -420 126 0c23,0 38,-33 19,-33l-123 0c238,-377 543,-856 830,-991 231,-109 471,-118 460,224 67,-26 73,-102 56,-143 -82,-225 -280,-209 -521,-107 -342,148 -682,599 -950,1017l-82 0zm599 13c33,0 18,61 -38,146 -79,118 -175,187 -279,216 20,-33 43,-68 66,-103 101,-148 207,-259 251,-259zm-408 312c-104,187 -74,315 -1,344 104,43 212,-11 319,-103 93,-78 169,-174 239,-281 10,-15 1,-26 -10,-8 -73,109 -150,196 -232,268 -102,82 -218,130 -274,74 -35,-37 -14,-124 36,-218 141,-31 313,-98 394,-216 89,-126 42,-198 -45,-198 -153,0 -324,157 -426,338zm555 359c58,0 135,-63 232,-168 59,-63 117,-137 178,-231 10,-15 1,-26 -11,-8 -74,115 -179,233 -246,292 -78,67 -153,115 -67,-18l98 -148c104,-165 48,-237 24,-270l-56 -74c48,-83 83,-161 113,-231 -64,0 -198,155 -142,235 -81,140 -166,268 -256,381 -12,13 -8,29 8,11 102,-122 186,-246 262,-370l21 26c41,55 22,100 -16,164l-96 150c-119,181 -92,259 -46,259l0 0zm184 -83c-243,384 -570,917 -875,1061 -231,109 -471,118 -460,-224 -67,26 -73,102 -56,143 82,225 280,209 521,107 342,-148 683,-599 949,-1019l402 -636 127 0c22,0 34,-33 13,-33l-120 0c239,-377 545,-856 833,-991 231,-109 471,-118 459,224 67,-26 73,-102 57,-143 -83,-225 -281,-209 -522,-107 -341,148 -681,599 -950,1017l-81 0c-24,0 -35,33 -16,33l77 0 -358 568zm791 -531c243,-384 570,-917 875,-1061 231,-109 471,-118 460,224 66,-26 72,-102 56,-143 -82,-225 -281,-209 -521,-107 -342,148 -684,601 -952,1019l-266 421c-67,106 -88,176 -81,217 13,105 159,5 213,-43 84,-74 180,-183 267,-312 8,-15 1,-26 -11,-8 -74,115 -177,224 -249,287 -76,68 -182,120 -98,-13l307 -481zm87 531c-246,381 -570,917 -876,1061 -231,109 -471,118 -459,-224 -67,26 -73,102 -57,143 83,225 281,209 522,107 341,-148 684,-599 949,-1019l420 -669c-79,0 -129,15 -209,142l-149 237c-51,70 -109,126 -156,168 -97,87 -179,126 -102,2l241 -381c82,-127 33,-168 -13,-168l-266 423c-117,183 -88,261 -42,261 58,0 177,-96 265,-189l-68 106z"/>
  <g>
   <path class="fil2" d="M7945 5846l7 83 -7 0c-7,-20 -16,-36 -27,-47 -16,-15 -36,-22 -61,-22 -33,0 -59,13 -76,40 -15,22 -22,49 -22,80 0,25 4,48 14,69 4,9 10,17 16,25 6,7 12,13 20,19 7,5 15,9 24,12 8,3 18,4 27,4 10,0 19,-1 28,-4 9,-2 18,-6 27,-11l0 -76c0,-7 0,-12 -1,-16 0,-4 -1,-7 -2,-10 -1,-2 -2,-4 -4,-6 -2,-1 -3,-2 -6,-3 -4,-2 -11,-3 -22,-3l0 -8 102 0 0 8 -5 0c-4,0 -8,0 -11,1 -3,1 -5,3 -7,6 -2,2 -4,6 -5,11 -1,5 -1,12 -1,20l0 81c-8,4 -16,7 -23,10 -7,3 -14,6 -22,8 -7,1 -15,3 -23,4 -8,1 -16,1 -25,1 -51,0 -90,-16 -116,-49 -20,-25 -30,-53 -30,-85 0,-9 1,-18 3,-27 1,-9 4,-18 7,-26 4,-9 8,-17 13,-25 5,-8 10,-15 16,-22 13,-14 28,-25 45,-32 17,-7 35,-10 56,-10 6,0 11,0 16,1 4,0 9,1 13,2 4,1 9,2 14,4 4,1 10,3 16,6 8,2 12,4 15,4 3,0 5,-1 6,-4 2,-2 3,-6 4,-13l7 0zm233 6l93 0 0 7 -6 0c-1,0 -3,1 -6,1 -3,1 -5,2 -8,4 -3,1 -6,3 -9,5 -4,2 -6,5 -9,7 -3,3 -6,7 -9,12 -3,4 -7,10 -11,16l-63 100 0 66c0,17 1,27 5,31 5,5 13,8 24,8l8 0 0 7 -112 0 0 -7 9 0c11,0 19,-3 24,-10 3,-4 4,-14 4,-29l0 -62 -72 -111c-5,-6 -8,-12 -11,-16 -3,-4 -5,-7 -7,-8 -1,-1 -2,-2 -4,-4 -2,-1 -4,-3 -7,-4 -2,-2 -5,-3 -9,-4 -3,-1 -6,-2 -10,-2l0 -7 113 0 0 7 -6 0c-3,0 -6,0 -9,1 -3,1 -5,2 -7,3 -3,2 -5,3 -6,6 -2,2 -2,4 -2,7 0,5 4,13 11,26l56 85 51 -82c8,-12 12,-21 12,-27 0,-3 -1,-5 -2,-8 -1,-2 -2,-4 -4,-6 -2,-1 -5,-3 -8,-3 -3,-1 -8,-2 -13,-2l0 -7zm261 264l-102 -222 0 176c0,17 2,27 5,31 5,5 13,8 23,8l10 0 0 7 -92 0 0 -7 9 0c11,0 19,-3 24,-10 3,-4 4,-14 4,-29l0 -172c0,-12 -1,-20 -4,-26 -1,-2 -2,-3 -4,-5 -1,-2 -3,-3 -6,-4 -3,-1 -6,-2 -10,-3 -3,-1 -8,-1 -13,-1l0 -7 74 0 96 207 94 -207 76 0 0 7 -10 0c-11,0 -19,4 -24,10 -3,4 -4,14 -4,29l0 172c0,17 2,27 5,31 5,5 13,8 23,8l10 0 0 7 -113 0 0 -7 9 0c12,0 20,-3 24,-10 3,-4 4,-14 4,-29l0 -176 -101 222 -7 0zm496 -170l81 0 0 7c-11,1 -19,4 -25,8 -5,4 -14,16 -25,37 -12,21 -24,40 -39,58 6,7 12,12 17,17 5,5 10,8 14,11 5,3 10,5 14,6 5,2 9,2 14,2 9,0 16,-2 23,-7 6,-5 10,-12 13,-22l7 6c-5,18 -12,31 -23,40 -11,9 -23,13 -37,13 -6,0 -11,-1 -16,-2 -6,-1 -11,-3 -17,-7 -5,-3 -11,-7 -17,-11 -6,-5 -12,-11 -19,-18 -16,14 -30,24 -43,30 -13,5 -27,8 -42,8 -10,0 -20,-1 -29,-5 -8,-3 -16,-7 -22,-12 -6,-5 -10,-12 -14,-19 -3,-7 -5,-14 -5,-22 0,-16 6,-31 17,-47 12,-16 33,-32 64,-49 -3,-6 -6,-12 -8,-18 -2,-5 -3,-10 -5,-15 -1,-4 -2,-8 -2,-12 -1,-4 -1,-8 -1,-13 0,-9 2,-18 5,-26 4,-8 9,-15 15,-20 6,-6 13,-10 22,-13 8,-3 17,-5 26,-5 8,0 15,1 21,4 7,2 12,5 17,10 5,4 8,9 11,15 2,6 4,12 4,19 0,13 -5,25 -15,36 -4,5 -11,10 -19,16 -8,6 -18,12 -30,18 8,15 16,29 25,42 8,13 17,26 26,38 23,-27 35,-50 35,-68 0,-3 -1,-5 -2,-8 0,-3 -2,-5 -3,-7 -1,-2 -3,-4 -6,-5 -2,-1 -4,-2 -7,-3l0 -7zm-75 5c32,-15 48,-35 48,-58 0,-5 -1,-9 -2,-13 -2,-4 -4,-7 -7,-10 -2,-3 -6,-6 -9,-7 -4,-2 -8,-3 -12,-3 -6,0 -11,1 -15,4 -4,2 -8,5 -11,8 -3,4 -5,7 -6,12 -2,4 -2,8 -2,11 0,4 0,7 0,10 1,3 2,7 3,11 1,5 3,9 5,15 2,6 5,12 8,20zm30 122c-8,-12 -16,-22 -22,-31 -5,-8 -10,-15 -14,-20 -3,-6 -6,-12 -10,-18 -4,-7 -7,-14 -11,-22 -32,18 -47,39 -47,64 0,7 1,14 3,20 3,6 6,12 10,17 5,4 10,8 16,11 6,3 13,5 20,5 5,0 9,-1 12,-1 4,-1 8,-2 12,-4 4,-2 9,-4 14,-8 5,-3 11,-8 17,-13zm333 -207l0 104 48 0c5,0 10,0 14,-1 4,-2 7,-3 10,-6 3,-3 5,-6 6,-11 2,-5 3,-11 4,-18l7 0 0 89 -7 0c0,-6 -1,-12 -2,-17 -1,-4 -3,-8 -5,-11 -3,-3 -6,-5 -11,-7 -4,-1 -10,-2 -16,-2l-48 0 0 83c0,7 0,12 0,16 0,3 1,7 1,9 1,3 2,5 4,6 1,2 3,3 5,4 6,3 12,5 18,5l10 0 0 7 -114 0 0 -7 10 0c11,0 19,-3 23,-10 4,-4 5,-14 5,-30l0 -170c0,-7 0,-12 0,-16 -1,-3 -1,-7 -2,-9 0,-3 -1,-5 -3,-6 -1,-2 -3,-3 -5,-4 -6,-3 -12,-5 -18,-5l-10 0 0 -7 197 0 0 58 -4 0c-3,-9 -6,-17 -9,-23 -3,-5 -7,-10 -12,-13 -4,-3 -10,-5 -16,-6 -6,-1 -14,-2 -22,-2l-58 0zm198 -27c3,0 5,1 8,2 2,1 4,2 6,4 2,2 3,4 4,6 1,3 2,5 2,8 0,3 -1,5 -2,8 -1,2 -2,4 -4,6 -2,2 -4,3 -6,4 -3,1 -5,2 -8,2 -3,0 -5,-1 -8,-2 -2,-1 -4,-2 -6,-4 -2,-2 -3,-4 -4,-6 -1,-3 -2,-5 -2,-8 0,-3 1,-5 2,-8 1,-2 2,-4 4,-6 2,-2 4,-3 6,-4 3,-1 5,-2 8,-2zm16 94l0 143c0,5 0,10 1,14 0,3 1,6 1,8 1,2 2,4 3,5 2,1 3,2 5,3 3,2 9,3 17,3l0 7 -86 0 0 -7c4,0 7,0 10,-1 3,0 5,-1 7,-2 2,-1 3,-2 4,-3 1,-1 2,-3 3,-5 2,-4 3,-11 3,-22l0 -69c0,-11 -1,-20 -1,-27 0,-6 -1,-11 -2,-14 -1,-3 -2,-5 -4,-6 -2,-1 -4,-2 -7,-2 -4,0 -8,1 -14,3l-2 -6 53 -22 9 0zm101 -54l0 59 41 0 0 13 -41 0 0 116c0,6 1,10 2,14 1,4 2,7 3,9 2,2 4,4 6,5 2,1 4,1 7,1 4,0 8,-1 12,-4 4,-2 7,-6 9,-11l8 0c-2,6 -5,11 -9,16 -3,5 -6,9 -10,12 -4,3 -8,6 -13,7 -4,2 -9,3 -13,3 -3,0 -6,-1 -9,-1 -3,-1 -6,-2 -8,-4 -3,-2 -6,-4 -8,-6 -2,-2 -4,-5 -5,-8 -3,-6 -4,-16 -4,-29l0 -120 -28 0 0 -6c7,-3 14,-8 22,-15 7,-6 14,-14 20,-24 1,-2 3,-6 5,-10 2,-5 5,-10 7,-17l6 0zm111 91c21,-25 41,-37 60,-37 6,0 12,1 18,3 6,2 10,6 15,11 4,5 7,12 9,21 3,8 4,19 4,32l0 76c0,7 0,13 1,18 1,4 2,7 4,10 3,2 5,3 9,4 3,1 8,1 13,1l0 7 -88 0 0 -7 4 0c5,0 10,-1 13,-2 3,-1 6,-2 8,-5 1,-3 2,-6 3,-10 0,-4 1,-10 1,-16l0 -73c0,-16 -3,-28 -7,-36 -4,-7 -11,-11 -21,-11 -15,0 -31,9 -46,26l0 94c0,12 1,19 2,22 1,2 2,4 3,5 1,2 3,3 5,3 2,1 4,2 7,2 3,1 7,1 12,1l0 7 -88 0 0 -7 4 0c4,0 8,-1 11,-2 3,-1 5,-2 7,-5 2,-3 3,-6 4,-10 0,-4 1,-10 1,-16l0 -66c0,-22 -1,-35 -2,-39 -1,-5 -2,-8 -4,-10 -2,-2 -5,-3 -8,-3 -4,0 -8,1 -13,3l-3 -6 54 -22 8 0 0 37zm177 35c0,13 2,25 6,35 3,11 8,20 14,27 6,8 13,13 21,17 8,4 16,6 25,6 11,0 22,-3 30,-10 9,-6 16,-17 22,-33l6 4c-1,9 -4,18 -8,26 -4,8 -9,16 -16,23 -6,6 -13,12 -22,16 -8,4 -17,6 -27,6 -11,0 -21,-3 -30,-7 -10,-4 -18,-10 -25,-18 -7,-8 -13,-18 -17,-29 -4,-12 -6,-25 -6,-39 0,-15 2,-29 6,-41 4,-12 10,-22 18,-31 7,-8 16,-14 26,-18 10,-5 21,-7 32,-7 10,0 19,2 28,5 8,4 15,9 21,15 7,6 11,14 15,23 3,9 5,19 5,30l-124 0zm0 -11l83 0c0,-12 -2,-20 -4,-25 -3,-7 -8,-13 -14,-17 -7,-4 -14,-6 -21,-6 -5,0 -10,1 -15,3 -5,2 -10,6 -14,10 -4,4 -7,9 -10,15 -2,5 -4,12 -5,20zm263 -61l0 60 -6 0c-3,-9 -5,-17 -9,-24 -3,-6 -6,-11 -10,-15 -4,-3 -9,-6 -13,-8 -5,-1 -11,-2 -17,-2 -4,0 -8,1 -12,2 -4,2 -7,3 -10,5 -2,3 -5,5 -6,8 -2,3 -2,5 -2,8 0,4 0,7 1,10 1,4 4,7 7,10 3,3 8,7 14,11 6,3 14,8 25,13 9,5 17,9 24,14 7,4 12,9 16,13 4,5 7,10 9,14 1,5 2,10 2,16 0,8 -1,15 -5,22 -3,7 -8,12 -13,17 -6,5 -12,8 -19,11 -8,2 -15,4 -22,4 -6,0 -12,-1 -18,-2 -6,-1 -13,-2 -20,-4 -2,-1 -4,-1 -5,-2 -2,0 -4,0 -5,0 -3,0 -5,2 -7,5l-7 0 0 -64 7 0c2,9 4,17 8,24 4,7 8,13 13,17 5,5 10,8 16,11 6,2 12,3 18,3 5,0 9,-1 12,-2 4,-1 7,-3 10,-6 3,-2 5,-5 6,-8 2,-3 3,-7 3,-11 0,-4 -1,-8 -2,-12 -2,-3 -4,-7 -8,-10 -3,-3 -8,-7 -14,-11 -6,-3 -14,-8 -24,-12 -9,-5 -17,-10 -23,-14 -6,-4 -10,-8 -14,-12 -3,-4 -5,-8 -7,-13 -1,-4 -1,-9 -1,-15 0,-7 1,-14 4,-20 2,-7 6,-12 11,-17 5,-4 10,-8 17,-10 7,-3 14,-4 22,-4 2,0 6,0 9,1 4,0 8,1 12,2 4,1 8,2 11,3 3,1 6,1 7,1 2,0 4,0 5,-1 1,-1 2,-3 4,-6l6 0zm155 0l0 60 -6 0c-2,-9 -5,-17 -8,-24 -3,-6 -7,-11 -11,-15 -4,-3 -8,-6 -13,-8 -5,-1 -11,-2 -16,-2 -5,0 -9,1 -13,2 -4,2 -7,3 -9,5 -3,3 -5,5 -7,8 -1,3 -2,5 -2,8 0,4 1,7 2,10 1,4 3,7 6,10 3,3 8,7 14,11 6,3 15,8 25,13 10,5 18,9 24,14 7,4 12,9 16,13 4,5 7,10 9,14 2,5 3,10 3,16 0,8 -2,15 -6,22 -3,7 -8,12 -13,17 -6,5 -12,8 -19,11 -7,2 -15,4 -22,4 -5,0 -11,-1 -18,-2 -6,-1 -12,-2 -19,-4 -3,-1 -5,-1 -6,-2 -2,0 -3,0 -5,0 -3,0 -5,2 -7,5l-6 0 0 -64 6 0c2,9 5,17 8,24 4,7 8,13 13,17 5,5 10,8 16,11 6,2 12,3 18,3 5,0 9,-1 13,-2 3,-1 7,-3 9,-6 3,-2 5,-5 7,-8 1,-3 2,-7 2,-11 0,-4 -1,-8 -2,-12 -1,-3 -4,-7 -7,-10 -4,-3 -9,-7 -15,-11 -6,-3 -14,-8 -23,-12 -10,-5 -18,-10 -24,-14 -5,-4 -10,-8 -14,-12 -3,-4 -5,-8 -6,-13 -2,-4 -2,-9 -2,-15 0,-7 1,-14 4,-20 3,-7 6,-12 11,-17 5,-4 11,-8 17,-10 7,-3 14,-4 22,-4 3,0 6,0 10,1 4,0 8,1 12,2 4,1 7,2 10,3 4,1 6,1 7,1 2,0 4,0 5,-1 1,-1 3,-3 4,-6l6 0zm288 95l-102 0 -18 41c-5,10 -7,18 -7,23 0,2 1,4 1,6 1,2 2,3 5,5 2,1 5,3 9,4 4,1 9,1 16,2l0 7 -83 0 0 -7c10,-2 18,-5 21,-8 3,-3 7,-8 10,-14 4,-6 8,-14 12,-24l93 -217 7 0 92 220c3,9 7,16 10,22 3,5 7,9 10,12 3,3 7,6 11,7 4,1 9,2 14,2l0 7 -104 0 0 -7c5,0 9,-1 13,-2 3,-1 6,-2 8,-3 2,-2 4,-3 4,-5 1,-2 2,-4 2,-6 0,-3 -1,-7 -2,-11 -2,-5 -4,-10 -6,-16l-16 -38zm-6 -15l-44 -107 -46 107 90 0zm276 36c-3,11 -6,22 -11,31 -5,9 -11,17 -18,23 -6,6 -14,11 -21,14 -8,3 -17,5 -25,5 -10,0 -20,-3 -29,-7 -9,-4 -17,-11 -24,-19 -7,-8 -12,-18 -17,-30 -4,-11 -6,-24 -6,-39 0,-14 2,-27 7,-38 4,-12 11,-22 18,-30 8,-8 17,-15 27,-20 11,-4 22,-6 33,-6 9,0 17,1 24,3 8,3 14,6 20,11 5,4 9,8 12,13 3,5 5,11 5,15 0,5 -2,9 -5,12 -3,3 -7,5 -13,5 -3,0 -6,0 -9,-1 -2,-1 -4,-2 -6,-3 -2,-2 -4,-4 -5,-7 -1,-3 -2,-7 -2,-12 -1,-8 -3,-13 -8,-17 -4,-4 -11,-6 -19,-6 -8,0 -14,1 -20,5 -6,3 -11,8 -15,14 -4,6 -7,13 -9,21 -2,7 -3,16 -3,25 0,10 1,20 4,30 2,9 6,18 11,25 5,8 11,14 18,19 8,4 16,6 25,6 5,0 11,0 16,-2 5,-1 9,-3 14,-7 4,-3 9,-8 13,-14 4,-6 8,-13 12,-22l6 3zm126 41c-18,15 -30,23 -34,25 -7,3 -15,5 -23,5 -6,0 -11,-1 -17,-4 -5,-2 -9,-5 -13,-9 -4,-4 -7,-9 -9,-15 -2,-5 -3,-11 -3,-18 0,-5 1,-10 2,-14 1,-5 3,-9 6,-13 3,-3 6,-7 11,-11 4,-3 9,-7 14,-10 14,-8 36,-17 66,-28l0 -7c0,-9 -1,-17 -2,-23 -2,-5 -4,-10 -7,-14 -2,-3 -6,-6 -10,-7 -4,-2 -9,-2 -14,-2 -4,0 -8,0 -11,1 -3,2 -6,3 -8,5 -3,2 -4,5 -6,7 -1,3 -2,6 -2,8l1 12c0,6 -2,10 -5,14 -3,3 -7,4 -12,4 -5,0 -9,-1 -12,-5 -3,-3 -4,-8 -4,-14 0,-5 1,-10 4,-16 3,-5 7,-10 13,-14 5,-4 12,-8 20,-11 8,-2 18,-3 28,-3 14,0 25,2 35,6 10,4 16,11 21,20 2,6 3,18 3,35l0 60c0,9 0,16 1,21 0,5 0,8 0,10 1,4 2,7 3,8 2,1 4,2 6,2 1,0 2,0 3,-1 2,0 3,-1 4,-2 2,-1 4,-3 6,-5 2,-2 5,-4 8,-8l0 11c-15,20 -29,30 -42,30 -6,0 -11,-3 -15,-7 -4,-4 -6,-12 -6,-23zm0 -13l0 -67c-10,3 -18,7 -24,9 -6,3 -11,5 -14,7 -10,6 -17,12 -22,18 -4,6 -6,13 -6,20 0,5 0,9 2,13 1,4 3,8 6,11 2,3 5,5 9,6 3,2 7,3 10,3 10,0 23,-7 39,-20z"/>
   <path class="fil2" d="M11130 6096c-9,9 -17,16 -25,20 -8,4 -18,6 -27,6 -10,0 -19,-3 -28,-7 -9,-4 -17,-10 -23,-18 -7,-8 -12,-17 -16,-28 -4,-10 -6,-22 -6,-35 0,-25 8,-49 24,-70 16,-21 37,-32 62,-32 16,0 29,5 39,15l0 -58c0,-3 0,-5 0,-8 1,-3 0,-5 0,-8 -1,-2 -2,-4 -4,-6 -2,-1 -5,-2 -10,-2 -3,0 -8,1 -13,3l-3 -7 54 -22 8 0 0 206c0,22 1,34 2,39 1,4 2,8 5,9 2,2 4,3 7,3 3,0 8,-1 14,-3l2 7 -53 22 -9 0 0 -26zm0 -14l0 -92c0,-7 -2,-14 -5,-19 -2,-6 -6,-11 -10,-15 -3,-4 -8,-7 -12,-9 -5,-2 -10,-3 -14,-3 -7,0 -13,2 -19,6 -6,3 -11,8 -16,15 -4,6 -7,14 -10,23 -2,9 -4,20 -4,31 0,13 2,25 5,35 3,10 8,18 13,25 5,7 11,12 18,16 6,3 13,5 20,5 12,0 23,-6 34,-18zm104 -77c0,13 1,25 5,35 3,11 8,20 14,27 6,8 13,13 21,17 8,4 16,6 25,6 12,0 22,-3 30,-10 9,-6 16,-17 22,-33l6 4c-1,9 -4,18 -8,26 -4,8 -9,16 -16,23 -6,6 -13,12 -22,16 -8,4 -17,6 -27,6 -11,0 -21,-3 -30,-7 -10,-4 -18,-10 -25,-18 -7,-8 -13,-18 -17,-29 -4,-12 -6,-25 -6,-39 0,-15 2,-29 6,-41 5,-12 10,-22 18,-31 7,-8 16,-14 26,-18 10,-5 21,-7 33,-7 9,0 19,2 27,5 8,4 16,9 22,15 6,6 11,14 14,23 3,9 5,19 5,30l-123 0zm0 -11l83 0c-1,-12 -2,-20 -5,-25 -3,-7 -8,-13 -14,-17 -7,-4 -13,-6 -20,-6 -6,0 -11,1 -16,3 -5,2 -9,6 -13,10 -4,4 -8,9 -10,15 -3,5 -5,12 -5,20zm200 -24c13,-13 21,-20 23,-22 6,-5 12,-9 19,-11 7,-3 13,-4 20,-4 11,0 21,3 29,9 8,7 13,16 16,28 13,-15 25,-25 34,-30 9,-5 18,-7 28,-7 7,0 13,1 18,3 6,2 11,6 15,11 5,5 8,12 10,20 3,9 4,19 4,32l0 77c0,6 0,11 0,15 1,4 2,7 3,10 2,3 5,5 8,6 4,1 9,2 16,2l0 7 -88 0 0 -7 4 0c6,0 11,-1 15,-3 4,-2 7,-6 9,-11 0,-2 1,-9 1,-19l0 -77c0,-8 -1,-15 -2,-21 -2,-5 -3,-10 -6,-13 -2,-3 -6,-6 -9,-7 -4,-1 -8,-2 -13,-2 -3,0 -7,0 -10,1 -3,1 -7,2 -10,4 -4,2 -8,5 -12,8 -4,3 -9,7 -14,12l0 95c0,6 0,11 1,15 0,3 0,6 1,8 1,2 2,3 3,4 1,1 3,2 5,3 2,1 4,2 8,2 3,1 7,1 11,1l0 7 -90 0 0 -7c7,0 12,-1 16,-2 4,-1 7,-2 9,-5 2,-2 3,-6 3,-10 1,-4 1,-10 1,-16l0 -77c0,-8 -1,-15 -2,-21 -2,-5 -4,-10 -7,-13 -2,-4 -5,-6 -9,-7 -4,-2 -8,-3 -12,-3 -5,0 -9,1 -13,3 -5,1 -9,3 -13,6 -4,2 -8,5 -12,8 -3,3 -6,5 -8,8l0 96c0,6 0,11 1,14 0,4 1,7 1,9 1,2 2,3 4,4 1,2 2,2 4,3 3,2 10,3 19,3l0 7 -88 0 0 -7c6,0 10,-1 14,-1 4,-1 6,-3 8,-5 2,-3 3,-6 4,-11 1,-4 1,-9 1,-16l0 -68c0,-12 0,-21 -1,-27 0,-7 -1,-12 -2,-15 -1,-4 -2,-6 -4,-6 -2,-1 -4,-2 -7,-2 -4,0 -8,1 -13,3l-3 -6 54 -22 8 0 0 37zm247 -32l83 0 0 7 -4 0c-6,0 -10,1 -13,4 -3,2 -4,5 -4,9 0,5 2,12 6,21l43 90 40 -98c2,-6 3,-11 3,-16 0,-2 0,-3 0,-4 0,-1 -1,-2 -3,-3 -1,-1 -3,-2 -5,-2 -2,-1 -6,-1 -9,-1l0 -7 58 0 0 7c-4,0 -6,1 -9,1 -2,1 -4,2 -6,4 -2,2 -3,4 -5,8 -2,3 -4,8 -7,14l-72 178c-4,8 -8,16 -13,23 -5,6 -10,12 -15,16 -5,4 -11,8 -17,10 -5,2 -11,3 -16,3 -4,0 -7,0 -10,-2 -4,-1 -6,-2 -9,-4 -2,-2 -4,-5 -5,-7 -1,-3 -2,-6 -2,-9 0,-5 2,-9 5,-13 4,-3 9,-5 15,-5 1,0 4,1 6,2 3,0 6,1 9,2 3,1 5,2 8,2 2,1 4,2 4,2 2,0 4,-1 6,-2 3,-1 5,-2 7,-4 2,-3 5,-6 7,-10 2,-3 5,-8 7,-14l13 -31 -64 -134c-1,-2 -2,-4 -3,-6 -2,-3 -4,-5 -5,-8 -2,-2 -4,-4 -5,-6 -2,-2 -3,-4 -5,-5 -2,-2 -7,-4 -14,-5l0 -7z"/>
  </g>
  <g>
   <path class="fil2 str0" d="M6942 5310c-6,-151 83,-206 99,-225 81,-51 157,-74 277,-81l15 11c9,6 6,8 21,9 30,2 21,-12 38,-21 20,-9 84,0 111,-2 -3,-37 -34,-45 -56,-66 15,-30 36,-32 44,-71 -44,-3 -55,10 -90,13l-8 -54c-50,-262 -41,-425 -230,-582 -47,-38 -124,-80 -142,-140l85 15c-10,-26 -27,-44 -42,-68 -46,-75 -79,-149 -119,-228 -40,-76 -83,-151 -148,-198 -24,-18 -57,-26 -59,-61l47 -6 -4 -85c-2,-47 -10,-94 23,-118 15,37 16,67 45,133 2,4 7,18 9,21l5 8c5,8 2,5 9,11 6,43 134,218 171,268 21,29 45,69 69,85 3,14 9,19 20,35l76 116c100,156 128,-89 307,-92 40,-1 68,13 94,31 19,13 20,15 33,33 12,17 16,28 31,39 5,5 -5,2 11,5 9,2 8,1 16,2 68,4 24,18 52,65 14,23 24,24 25,58l-27 15c-80,30 -68,168 -34,184 70,35 137,-45 170,-85 26,-31 62,-60 81,-94 39,-20 238,-219 282,-296 10,-17 13,-42 31,-55 3,54 -18,129 -12,162l70 7c-17,15 -51,17 -75,26 -24,10 -51,28 -66,41 -25,22 -84,80 -95,112 -21,17 -58,76 -72,98l-76 97c-73,67 -149,73 -141,202 3,44 91,127 38,178 -54,53 -100,3 -124,60 -27,66 -146,305 -217,361 -31,12 -71,-7 -89,23 -24,39 12,74 -12,105 -553,598 -1139,543 -1623,967 -27,24 -36,27 -65,54 -13,12 -17,13 -33,27 -6,6 -9,8 -16,14l-89 68c-34,38 -110,83 -159,109 -74,37 -119,45 -204,67 5,-28 9,-23 29,-39l73 -66c24,-20 20,-7 54,-14l5 -45c-1,-18 -3,-29 -1,-48 4,-29 14,-50 30,-67 40,-43 95,-35 163,-34l5 -1c25,1 95,-61 111,-80l47 -49c90,-90 122,-154 169,-190 118,-93 217,-139 253,-158 95,-3 387,-190 472,-252 52,-39 243,-191 312,-264zm-2283 -1635l0 36c140,38 363,181 457,289 50,58 178,209 191,261 21,17 61,83 75,106 75,123 127,205 230,307 29,29 125,124 175,127 32,-131 50,-87 71,-141 -21,-16 -152,-44 -181,-111 84,-20 150,1 230,3 18,-79 2,-115 36,-192 66,15 90,112 124,169 57,-15 120,-73 191,-70 -9,72 -72,110 -93,159 35,24 87,7 109,60 -53,30 -275,26 -534,215 -67,49 -146,118 -191,180 -25,34 -56,66 -81,103 -12,17 -67,105 -75,112 -9,27 -37,72 -53,102 -15,30 -43,76 -47,107l410 -24c68,-4 131,-8 199,-14 33,-2 66,-8 100,-4 530,60 955,-384 1014,-407l56 -54c7,-22 0,-13 -28,-15l-288 11c-263,13 -485,58 -734,101 -43,8 -105,27 -144,29 84,-64 370,-140 495,-167 81,-18 185,-14 200,-46 2,-5 3,-7 5,-12 12,-28 32,-47 71,-49 62,-2 71,36 101,61l337 -11c0,-30 -223,-241 -249,-264 -266,-226 -471,-368 -793,-522 -37,-18 -146,-73 -177,-80 146,11 540,207 644,271l350 224c28,19 38,40 76,32 35,-7 73,-12 92,15 25,35 -3,66 -10,94 29,31 60,51 88,78 21,20 26,21 45,39 14,12 33,31 54,38 -5,-291 -132,-559 -319,-741 -310,-302 -811,-447 -1291,-473 -172,-3 -325,-6 -496,6 -156,11 -297,45 -442,62zm1378 1533c-39,3 -73,-13 -109,-7 9,8 15,20 24,30 9,12 21,23 31,35 -19,38 -46,34 -62,72l105 -9c11,25 19,55 37,76 23,-15 30,-50 54,-73l101 11c-14,-29 -45,-49 -51,-73 20,-22 46,-36 63,-58l-8 -4c-7,-2 -3,-2 -15,-3l-86 7c-7,-28 -18,-62 -43,-76 -9,22 -24,49 -41,72zm567 -661c-99,34 -40,136 45,113 83,-22 40,-142 -45,-113zm234 -316c-32,10 -60,29 -42,79 9,26 45,50 88,36 78,-25 34,-142 -46,-115zm617 33c-81,34 -17,141 61,105 69,-32 22,-140 -61,-105zm-1024 934c-28,11 -60,29 -36,73 15,27 54,33 84,20 72,-29 34,-125 -48,-93zm-61 -789c-84,30 -23,114 46,90 62,-21 27,-116 -46,-90zm-806 -519c-75,32 -11,105 51,83 25,-9 43,-35 23,-65 -14,-20 -46,-30 -74,-18zm94 434c-66,35 -2,96 58,72 66,-26 2,-104 -58,-72zm1443 1033c-70,25 -31,106 35,78 54,-23 33,-102 -35,-78zm345 -822c-24,9 -44,19 -30,56 11,27 41,30 67,20 53,-19 20,-96 -37,-76zm57 130c-57,20 -25,91 32,69 50,-19 17,-87 -32,-69zm-1754 -559c0,0 -37,14 -11,49 10,15 39,25 63,10 38,-23 -1,-94 -52,-59zm880 1090c-15,71 58,61 72,35 27,-53 -39,-54 -72,-35zm-59 -1093c-38,-35 -94,-18 -77,23 6,15 26,22 47,20 26,-4 31,-15 30,-43zm-514 1141c-47,26 -6,75 39,52 42,-21 8,-78 -39,-52zm849 249c-49,18 -21,75 25,56 39,-17 23,-73 -25,-56zm-186 172c-47,23 -20,98 24,73 37,-22 22,-95 -24,-73z"/>
   <g>
   </g>
  </g>
 </g>
</svg>
